<svg width="20" height="20" viewBox="0 0 20 20" fill="none" xmlns="http://www.w3.org/2000/svg">
<path d="M5.53958 15.6865C5.34042 15.6865 5.17201 15.6179 5.03437 15.4807C4.89687 15.3435 4.82812 15.1755 4.82812 14.9767C4.82812 14.778 4.89687 14.6094 5.03437 14.4709C5.17201 14.3326 5.34042 14.2634 5.53958 14.2634H8.00917L10.7929 5.73465H8.24C8.04083 5.73465 7.87243 5.66604 7.73479 5.52882C7.59729 5.39145 7.52854 5.2234 7.52854 5.02465C7.52854 4.8259 7.59729 4.65736 7.73479 4.51902C7.87243 4.38069 8.04083 4.31152 8.24 4.31152H14.6119C14.811 4.31152 14.9794 4.38013 15.1169 4.51736C15.2545 4.65458 15.3233 4.82257 15.3233 5.02132C15.3233 5.22007 15.2545 5.38868 15.1169 5.52715C14.9794 5.66548 14.811 5.73465 14.6119 5.73465H12.2319L9.44833 14.2634H11.9115C12.1106 14.2634 12.279 14.332 12.4167 14.4692C12.5542 14.6066 12.6229 14.7746 12.6229 14.9734C12.6229 15.1721 12.5542 15.3407 12.4167 15.479C12.279 15.6174 12.1106 15.6865 11.9115 15.6865H5.53958Z" fill="#332C5C"/>
</svg>
