<svg width="20" height="20" viewBox="0 0 20 20" fill="none" xmlns="http://www.w3.org/2000/svg">
<path fill-rule="evenodd" clip-rule="evenodd" d="M7.57487 15.7617C8.33442 16.0872 9.14431 16.25 10.0046 16.25C10.8647 16.25 11.6731 16.0872 12.4297 15.7617C13.1862 15.4362 13.8493 14.9886 14.4189 14.4189C14.9886 13.8493 15.4362 13.1847 15.7617 12.4251C16.0872 11.6656 16.25 10.8557 16.25 9.99544C16.25 9.13531 16.0872 8.32693 15.7617 7.57031C15.4362 6.8138 14.9886 6.15072 14.4189 5.58105C13.8493 5.01139 13.1874 4.5638 12.4333 4.23828C11.6791 3.91276 10.8706 3.75 10.0075 3.75C9.14442 3.75 8.33333 3.91276 7.57422 4.23828C6.8151 4.5638 6.15072 5.01139 5.58105 5.58105C5.01139 6.15072 4.5638 6.81261 4.23828 7.56673C3.91276 8.32086 3.75 9.12945 3.75 9.99251C3.75 10.8556 3.91276 11.6667 4.23828 12.4258C4.5638 13.1849 5.01139 13.8493 5.58105 14.4189C6.15072 14.9886 6.81532 15.4362 7.57487 15.7617ZM13.597 13.597C12.6096 14.5844 11.4106 15.0781 10 15.0781C8.58941 15.0781 7.39041 14.5844 6.40299 13.597C5.41558 12.6096 4.92188 11.4106 4.92188 10C4.92188 8.58941 5.41558 7.39041 6.40299 6.40299C7.39041 5.41558 8.58941 4.92188 10 4.92188C11.4106 4.92188 12.6096 5.41558 13.597 6.40299C14.5844 7.39041 15.0781 8.58941 15.0781 10C15.0781 11.4106 14.5844 12.6096 13.597 13.597Z" fill="#332C5C"/>
<path fill-rule="evenodd" clip-rule="evenodd" d="M6.01413 6.00543C6.24296 5.77661 6.61395 5.77661 6.84277 6.00543L14.0085 13.1378C14.2373 13.3666 14.1028 13.6365 13.874 13.8653C13.6452 14.0941 13.4052 14.2062 13.1763 13.9774L6.01413 6.83407C5.78531 6.60525 5.78531 6.23425 6.01413 6.00543Z" fill="#332C5C"/>
</svg>
