<svg width="20" height="20" viewBox="0 0 20 20" fill="none" xmlns="http://www.w3.org/2000/svg">
<path d="M14.25 14.001H12.7292C12.5347 14.001 12.3646 13.9291 12.2188 13.7854C12.0729 13.6416 12 13.4635 12 13.251C12 13.0565 12.0719 12.8829 12.2156 12.7301C12.3594 12.5774 12.5375 12.501 12.75 12.501H14.25V11.001C14.25 10.7885 14.3215 10.6104 14.4644 10.4666C14.6073 10.3229 14.7844 10.251 14.9956 10.251C15.2069 10.251 15.3845 10.3229 15.5285 10.4666C15.6727 10.6104 15.7448 10.7885 15.7448 11.001V12.501H17.2483C17.4612 12.501 17.6398 12.5729 17.784 12.7166C17.928 12.8604 18 13.0385 18 13.251C18 13.4635 17.928 13.6416 17.784 13.7854C17.6398 13.9291 17.4612 14.001 17.2483 14.001H15.7448V15.501C15.7448 15.7135 15.6727 15.8916 15.5285 16.0354C15.3845 16.1791 15.2069 16.251 14.9956 16.251C14.7844 16.251 14.6073 16.1791 14.4644 16.0354C14.3215 15.8916 14.25 15.7135 14.25 15.501V14.001ZM8.25 14.001H6C4.89333 14.001 3.95 13.6105 3.17 12.8295C2.39 12.0487 2 11.1042 2 9.99618C2 8.88827 2.39 7.94542 3.17 7.16764C3.95 6.38987 4.89333 6.00098 6 6.00098H8.25C8.44444 6.00098 8.61806 6.07737 8.77083 6.23014C8.92361 6.38292 9 6.56 9 6.76139C9 6.96278 8.92361 7.13639 8.77083 7.28223C8.61806 7.42806 8.44444 7.50098 8.25 7.50098H6C5.30556 7.50098 4.71528 7.74403 4.22917 8.23014C3.74306 8.71625 3.5 9.30653 3.5 10.001C3.5 10.6954 3.74306 11.2857 4.22917 11.7718C4.71528 12.2579 5.30556 12.501 6 12.501H8.25C8.44444 12.501 8.61806 12.5774 8.77083 12.7301C8.92361 12.8829 9 13.06 9 13.2614C9 13.4628 8.92361 13.6364 8.77083 13.7822C8.61806 13.9281 8.44444 14.001 8.25 14.001ZM7.75583 10.751C7.54361 10.751 7.36458 10.6795 7.21875 10.5366C7.07292 10.3937 7 10.2166 7 10.0054C7 9.7941 7.07181 9.61556 7.21542 9.46973C7.35903 9.32389 7.53694 9.25098 7.74917 9.25098H12.2442C12.4564 9.25098 12.6354 9.32244 12.7812 9.46535C12.9271 9.60827 13 9.78535 13 9.9966C13 10.2079 12.9282 10.3864 12.7846 10.5322C12.641 10.6781 12.4631 10.751 12.2508 10.751H7.75583ZM18 10.001H16.5C16.5 9.30653 16.2569 8.71625 15.7708 8.23014C15.2847 7.74403 14.6944 7.50098 14 7.50098H11.7292C11.5347 7.50098 11.3646 7.4291 11.2188 7.28535C11.0729 7.1416 11 6.96348 11 6.75098C11 6.55653 11.0719 6.38292 11.2156 6.23014C11.3594 6.07737 11.5375 6.00098 11.75 6.00098H14C15.1067 6.00098 16.05 6.39098 16.83 7.17098C17.61 7.95098 18 8.89431 18 10.001Z" fill="#332C5C"/>
</svg>
