<svg width="20" height="20" viewBox="0 0 20 20" fill="none" xmlns="http://www.w3.org/2000/svg">
<path fill-rule="evenodd" clip-rule="evenodd" d="M3.75 10.6269C3.5375 10.6269 3.35938 10.5555 3.21563 10.4126C3.07188 10.2697 3 10.0926 3 9.88132C3 9.67007 3.07188 9.49153 3.21563 9.3457C3.35938 9.19987 3.5375 9.12695 3.75 9.12695H16.25C16.4625 9.12695 16.6406 9.19841 16.7844 9.34132C16.9281 9.48424 17 9.66132 17 9.87257C17 10.0838 16.9281 10.2624 16.7844 10.4082C16.6406 10.554 16.4625 10.6269 16.25 10.6269H3.75Z" fill="#332C5C"/>
<path fill-rule="evenodd" clip-rule="evenodd" d="M3.75 6.49902C3.5375 6.49902 3.35938 6.42757 3.21563 6.28465C3.07188 6.14173 3 5.96465 3 5.7534C3 5.54215 3.07188 5.36361 3.21563 5.21777C3.35938 5.07194 3.5375 4.99902 3.75 4.99902H16.25C16.4625 4.99902 16.6406 5.07048 16.7844 5.2134C16.9281 5.35631 17 5.5334 17 5.74465C17 5.9559 16.9281 6.13444 16.7844 6.28027C16.6406 6.42611 16.4625 6.49902 16.25 6.49902H3.75Z" fill="#332C5C"/>
<path fill-rule="evenodd" clip-rule="evenodd" d="M3.75 14.999C3.5375 14.999 3.35938 14.9276 3.21563 14.7846C3.07188 14.6417 3 14.4646 3 14.2534C3 14.0421 3.07188 13.8636 3.21563 13.7178C3.35938 13.5719 3.5375 13.499 3.75 13.499H16.25C16.4625 13.499 16.6406 13.5705 16.7844 13.7134C16.9281 13.8563 17 14.0334 17 14.2446C17 14.4559 16.9281 14.6344 16.7844 14.7803C16.6406 14.9261 16.4625 14.999 16.25 14.999H3.75Z" fill="#332C5C"/>
</svg>
