<svg width="20" height="20" viewBox="0 0 20 20" fill="none" xmlns="http://www.w3.org/2000/svg">
<path d="M7.04297 15.999C6.63047 15.999 6.27734 15.8521 5.98359 15.5584C5.68984 15.2646 5.54297 14.9115 5.54297 14.499V5.49902C5.54297 5.08652 5.68984 4.7334 5.98359 4.43965C6.27734 4.1459 6.63047 3.99902 7.04297 3.99902H10.293C11.2216 3.99902 12.0787 4.28597 12.8644 4.85986C13.6501 5.43388 14.043 6.23027 14.043 7.24902C14.043 7.95736 13.8867 8.50944 13.5742 8.90527C13.2617 9.30111 12.9666 9.58958 12.6888 9.77069C13.0499 9.9368 13.4388 10.2351 13.8555 10.6657C14.2721 11.0962 14.4805 11.7282 14.4805 12.5615C14.4805 13.8254 14.0146 14.7143 13.0828 15.2282C12.1511 15.7421 11.2767 15.999 10.4596 15.999H7.04297ZM8.1888 13.5407H10.3696C11.0407 13.5407 11.4457 13.3706 11.5846 13.0303C11.7235 12.69 11.793 12.4435 11.793 12.2907C11.793 12.1379 11.7201 11.8914 11.5742 11.5511C11.4284 11.2108 11.0013 11.0407 10.293 11.0407H8.1888V13.5407ZM8.1888 8.70736H10.1263C10.5846 8.70736 10.9214 8.58583 11.1367 8.34277C11.352 8.09972 11.4596 7.8393 11.4596 7.56152C11.4596 7.22819 11.3408 6.95736 11.1032 6.74902C10.8655 6.54069 10.558 6.43652 10.1807 6.43652H8.1888V8.70736Z" fill="#332C5C"/>
</svg>
