<svg width="20" height="20" viewBox="0 0 20 20" fill="none" xmlns="http://www.w3.org/2000/svg">
<path d="M13.8892 7.10052L12.7769 9.0476C12.8249 9.02094 12.881 9.00226 12.9452 8.99156C13.0094 8.98087 13.0735 8.97552 13.1375 8.97552C13.7208 8.97552 14.2318 9.20649 14.6704 9.66844C15.1089 10.1305 15.3281 10.6853 15.3281 11.3328C15.3281 12.0134 15.1019 12.5799 14.6496 13.0324C14.1971 13.4848 13.6306 13.7109 12.95 13.7109C12.2801 13.7109 11.7163 13.4848 11.2585 13.0324C10.8008 12.5799 10.5719 12.0134 10.5719 11.3328C10.5719 11.1234 10.6039 10.9169 10.6679 10.7134C10.7321 10.51 10.8117 10.3216 10.9069 10.1484L12.9581 6.55885C13.0053 6.4783 13.07 6.41302 13.1521 6.36302C13.234 6.31302 13.326 6.28802 13.4279 6.28802C13.6393 6.28802 13.7978 6.3783 13.9035 6.55885C14.0094 6.73941 14.0046 6.91996 13.8892 7.10052ZM7.98521 7.10052L6.87312 9.0476C6.92118 9.02094 6.97729 9.00226 7.04146 8.99156C7.10549 8.98087 7.16958 8.97552 7.23375 8.97552C7.81708 8.97552 8.32799 9.20649 8.76646 9.66844C9.20507 10.1305 9.42437 10.6853 9.42437 11.3328C9.42437 12.0186 9.19812 12.5865 8.74562 13.0364C8.29326 13.4861 7.7268 13.7109 7.04625 13.7109C6.37639 13.7109 5.81257 13.4848 5.35479 13.0324C4.89701 12.5799 4.66812 12.0134 4.66812 11.3328C4.66812 11.1234 4.69667 10.9169 4.75375 10.7134C4.81097 10.51 4.88708 10.3216 4.98208 10.1484L7.05417 6.55885C7.10153 6.4783 7.16618 6.41302 7.24812 6.36302C7.33021 6.31302 7.42222 6.28802 7.52417 6.28802C7.73542 6.28802 7.89396 6.3783 7.99979 6.55885C8.10549 6.73941 8.10062 6.91997 7.98521 7.10052Z" fill="#332C5C"/>
</svg>
