<svg width="20" height="20" viewBox="0 0 20 20" fill="none" xmlns="http://www.w3.org/2000/svg">
<path d="M12.006 7.74902C11.7937 7.74902 11.6146 7.67757 11.4688 7.53465C11.3229 7.39173 11.25 7.21465 11.25 7.0034C11.25 6.79215 11.3218 6.61361 11.4654 6.46777C11.609 6.32194 11.787 6.24902 11.9994 6.24902L17.994 6.25777C18.2063 6.25777 18.3854 6.32923 18.5313 6.47215C18.6771 6.61507 18.75 6.79215 18.75 7.0034C18.75 7.21465 18.6782 7.39319 18.5346 7.53902C18.391 7.68486 18.213 7.75777 18.0006 7.75777L12.006 7.74902Z" fill="#332C5C"/>
<path d="M12.006 10.8384C11.7937 10.8384 11.6146 10.7669 11.4688 10.624C11.3229 10.4811 11.25 10.304 11.25 10.0928C11.25 9.88152 11.3218 9.70298 11.4654 9.55715C11.609 9.41132 11.787 9.3384 11.9994 9.3384H17.994C18.2063 9.3384 18.3854 9.40986 18.5313 9.55277C18.6771 9.69569 18.75 9.87277 18.75 10.084C18.75 10.2953 18.6782 10.4738 18.5346 10.6196C18.391 10.7655 18.213 10.8384 18.0006 10.8384H12.006Z" fill="#332C5C"/>
<path d="M12.006 13.749C11.7937 13.749 11.6146 13.6776 11.4688 13.5346C11.3229 13.3917 11.25 13.2146 11.25 13.0034C11.25 12.7921 11.3218 12.6136 11.4654 12.4678C11.609 12.3219 11.787 12.249 11.9994 12.249H17.994C18.2063 12.249 18.3854 12.3205 18.5313 12.4634C18.6771 12.6063 18.75 12.7834 18.75 12.9946C18.75 13.2059 18.6782 13.3844 18.5346 13.5303C18.391 13.6761 18.213 13.749 18.0006 13.749H12.006Z" fill="#332C5C"/>
<path d="M5.31716 13.3915C4.84468 13.3915 4.39942 13.3022 3.9814 13.1235C3.56338 12.9448 3.1973 12.6985 2.88316 12.3847C2.56895 12.0709 2.32239 11.7055 2.14348 11.2883C1.96449 10.8711 1.875 10.4254 1.875 9.95112C1.875 9.47678 1.96435 9.03232 2.14306 8.61775C2.32177 8.20318 2.56802 7.83882 2.88181 7.52468C3.19561 7.21048 3.56107 6.96392 3.97819 6.785C4.39538 6.60602 4.84112 6.51652 5.3154 6.51652C5.78975 6.51652 6.23421 6.60588 6.64878 6.78459C7.06335 6.9633 7.4277 7.20955 7.74184 7.52334C8.05605 7.83713 8.30261 8.2018 8.48152 8.61733C8.66051 9.03287 8.75 9.47688 8.75 9.94936C8.75 10.4218 8.66065 10.8671 8.48194 11.2851C8.30323 11.7031 8.05698 12.0692 7.74319 12.3834C7.42939 12.6976 7.06473 12.9441 6.64919 13.123C6.23365 13.302 5.78964 13.3915 5.31716 13.3915Z" fill="#332C5C"/>
</svg>
