<svg width="20" height="20" viewBox="0 0 20 20" fill="none" xmlns="http://www.w3.org/2000/svg">
<path fill-rule="evenodd" clip-rule="evenodd" d="M2.58979 16.7913C2.22438 16.7913 1.90972 16.6594 1.64583 16.3955C1.38194 16.1316 1.25 15.817 1.25 15.4515V4.5478C1.25 4.17266 1.38194 3.85558 1.64583 3.59655C1.90972 3.33752 2.22438 3.20801 2.58979 3.20801H17.4102C17.7756 3.20801 18.0903 3.33752 18.3542 3.59655C18.6181 3.85558 18.75 4.17266 18.75 4.5478V15.4515C18.75 15.817 18.6181 16.1316 18.3542 16.3955C18.0903 16.6594 17.7756 16.7913 17.4102 16.7913H2.58979ZM5.33333 15.458H14.6667V4.54134H5.33333V15.458ZM2.58979 15.458H4.25V13.5413H2.33333V15.2015C2.33333 15.2657 2.36 15.3245 2.41333 15.3778C2.46681 15.4313 2.52562 15.458 2.58979 15.458ZM15.75 15.458H17.4102C17.4744 15.458 17.5332 15.4313 17.5867 15.3778C17.64 15.3245 17.6667 15.2657 17.6667 15.2015V13.5413H15.75V15.458ZM2.33333 12.458H4.25V10.5413H2.33333V12.458ZM15.75 12.458H17.6667V10.5413H15.75V12.458ZM2.33333 9.45801H4.25V7.54134H2.33333V9.45801ZM15.75 9.45801H17.6667V7.54134H15.75V9.45801ZM2.33333 6.45801H4.25V4.54134H2.58979C2.52562 4.54134 2.46681 4.56808 2.41333 4.62155C2.36 4.67488 2.33333 4.73363 2.33333 4.7978V6.45801ZM15.75 6.45801H17.6667V4.7978C17.6667 4.73363 17.64 4.67488 17.5867 4.62155C17.5332 4.56808 17.4744 4.54134 17.4102 4.54134H15.75V6.45801Z" fill="#332C5C"/>
<path d="M12.6154 10.2846C12.7158 10.2155 12.766 10.1208 12.766 10.0004C12.766 9.87998 12.7158 9.78776 12.6154 9.72373L8.67958 7.22373C8.56528 7.15109 8.45014 7.14588 8.33416 7.2081C8.21819 7.27032 8.1602 7.36636 8.1602 7.49623V12.5056C8.1602 12.6467 8.21819 12.7466 8.33416 12.8054C8.45014 12.8641 8.56528 12.8572 8.67958 12.7846L12.6154 10.2846Z" fill="#332C5C"/>
</svg>
