<svg width="20" height="20" viewBox="0 0 20 20" fill="none" xmlns="http://www.w3.org/2000/svg">
<path fill-rule="evenodd" clip-rule="evenodd" d="M3.75 10.625C3.5375 10.625 3.35938 10.5535 3.21563 10.4106C3.07188 10.2677 3 10.0906 3 9.87937C3 9.66812 3.07188 9.48958 3.21563 9.34375C3.35938 9.19791 3.5375 9.125 3.75 9.125H16.25C16.4625 9.125 16.6406 9.19645 16.7844 9.33937C16.9281 9.48229 17 9.65937 17 9.87062C17 10.0819 16.9281 10.2604 16.7844 10.4062C16.6406 10.5521 16.4625 10.625 16.25 10.625H3.75Z" fill="#332C5C"/>
<path d="M6.13101 6.49805C5.91865 6.49805 5.73955 6.42659 5.59372 6.28367C5.44789 6.14076 5.37497 5.96367 5.37497 5.75242C5.37497 5.54117 5.44678 5.36263 5.59039 5.2168C5.734 5.07096 5.91198 4.99805 6.12434 4.99805H13.6189C13.8313 4.99805 14.0104 5.06951 14.1562 5.21242C14.3021 5.35534 14.375 5.53242 14.375 5.74367C14.375 5.95492 14.3032 6.13346 14.1596 6.2793C14.0159 6.42513 13.838 6.49805 13.6256 6.49805H6.13101Z" fill="#332C5C"/>
<path d="M7.38101 15C7.16865 15 6.98955 14.9285 6.84372 14.7856C6.69789 14.6427 6.62497 14.4656 6.62497 14.2544C6.62497 14.0431 6.69678 13.8646 6.84039 13.7187C6.984 13.5729 7.16198 13.5 7.37434 13.5H12.3689C12.5813 13.5 12.7604 13.5715 12.9062 13.7144C13.0521 13.8573 13.125 14.0344 13.125 14.2456C13.125 14.4569 13.0532 14.6354 12.9096 14.7812C12.7659 14.9271 12.588 15 12.3756 15H7.38101Z" fill="#332C5C"/>
</svg>
