<svg width="20" height="20" viewBox="0 0 20 20" fill="none" xmlns="http://www.w3.org/2000/svg">
<path fill-rule="evenodd" clip-rule="evenodd" d="M1.80651 16.1961C2.06554 16.4551 2.38262 16.5846 2.75776 16.5846H17.2448C17.62 16.5846 17.9371 16.4551 18.1961 16.1961C18.4551 15.9371 18.5846 15.62 18.5846 15.2448V4.75776C18.5846 4.38262 18.4551 4.06554 18.1961 3.80651C17.9371 3.54748 17.62 3.41797 17.2448 3.41797H2.75776C2.38262 3.41797 2.06554 3.54748 1.80651 3.80651C1.54748 4.06554 1.41797 4.38262 1.41797 4.75776V15.2448C1.41797 15.62 1.54748 15.9371 1.80651 16.1961ZM17.2448 15.5013H2.75776C2.69359 15.5013 2.63484 15.4746 2.58151 15.4211C2.52804 15.3678 2.5013 15.309 2.5013 15.2448V4.75776C2.5013 4.69359 2.52804 4.63484 2.58151 4.58151C2.63484 4.52804 2.69359 4.5013 2.75776 4.5013H17.2448C17.309 4.5013 17.3678 4.52804 17.4211 4.58151C17.4746 4.63484 17.5013 4.69359 17.5013 4.75776V15.2448C17.5013 15.309 17.4746 15.3678 17.4211 15.4211C17.3678 15.4746 17.309 15.5013 17.2448 15.5013Z" fill="#332C5C"/>
<path d="M8.79748 11.3212L7.16925 9.35822C7.06276 9.21384 6.92833 9.14165 6.76597 9.14165C6.60382 9.14165 6.4694 9.21796 6.36269 9.37057L4.55862 11.68C4.41816 11.8533 4.39702 12.0332 4.49518 12.2198C4.59334 12.4066 4.74486 12.5 4.94973 12.5H15.1701C15.3815 12.5 15.5336 12.4066 15.6263 12.2198C15.719 12.0332 15.7012 11.853 15.573 11.6793L12.5039 7.72891C12.3972 7.57631 12.2607 7.5 12.0944 7.5C11.9278 7.5 11.7913 7.57631 11.6848 7.72891L8.79748 11.3212Z" fill="#332C5C"/>
</svg>
