<svg width="20" height="20" viewBox="0 0 20 20" fill="none" xmlns="http://www.w3.org/2000/svg">
<path d="M9.36663 8.71874V5.68978H6.05413C5.87872 5.68978 5.72969 5.62832 5.60705 5.5054C5.48427 5.38235 5.42288 5.23304 5.42288 5.05749C5.42288 4.88179 5.48427 4.73145 5.60705 4.60645C5.72969 4.48145 5.87872 4.41895 6.05413 4.41895H13.95C14.1254 4.41895 14.2745 4.4804 14.3973 4.60332C14.52 4.72638 14.5814 4.87568 14.5814 5.05124C14.5814 5.22693 14.52 5.37728 14.3973 5.50228C14.2745 5.62728 14.1254 5.68978 13.95 5.68978H10.6375V8.71874H9.36663ZM9.36663 12.77H10.6375V14.9542C10.6375 15.1296 10.576 15.2787 10.4531 15.4014C10.3302 15.5242 10.1809 15.5856 10.0052 15.5856C9.82948 15.5856 9.67913 15.5235 9.55413 15.3992C9.42913 15.2748 9.36663 15.1239 9.36663 14.9462V12.77Z" fill="#332C5C"/>
<path d="M2.34766 11.6046C2.13516 11.6046 1.95703 11.5321 1.81328 11.3869C1.66953 11.2417 1.59766 11.0617 1.59766 10.8471C1.59766 10.6359 1.67064 10.4574 1.81661 10.3115C1.96273 10.1657 2.1437 10.0928 2.35953 10.0928H17.6485C17.861 10.0928 18.0391 10.1642 18.1829 10.3071C18.3266 10.4501 18.3985 10.6271 18.3985 10.8384C18.3985 11.0496 18.3255 11.2301 18.1795 11.3799C18.0334 11.5297 17.8524 11.6046 17.6366 11.6046H2.34766Z" fill="#332C5C"/>
</svg>
