<svg width="20" height="20" viewBox="0 0 20 20" fill="none" xmlns="http://www.w3.org/2000/svg">
<path d="M10.0013 13.6074C8.7748 13.6074 7.82236 13.2388 7.14403 12.5016C6.46556 11.7642 6.12632 10.7756 6.12632 9.53577V4.04431C6.12632 3.85056 6.19799 3.68549 6.34132 3.5491C6.48479 3.41285 6.65361 3.34473 6.84778 3.34473C7.04195 3.34473 7.20792 3.41396 7.3457 3.55244C7.48348 3.69091 7.55236 3.85709 7.55236 4.05098V9.61431C7.55236 10.4124 7.76521 11.0515 8.19091 11.5316C8.61646 12.0117 9.22035 12.2518 10.0026 12.2518C10.7849 12.2518 11.3895 12.0115 11.8163 11.531C12.2431 11.0506 12.4565 10.411 12.4565 9.61223V4.04473C12.4565 3.8507 12.5237 3.68549 12.658 3.5491C12.7923 3.41285 12.9585 3.34473 13.1565 3.34473C13.3546 3.34473 13.524 3.41382 13.6649 3.55202C13.8058 3.69021 13.8763 3.85605 13.8763 4.04952V9.53514C13.8763 10.7736 13.5371 11.7619 12.8586 12.5001C12.1803 13.2383 11.2279 13.6074 10.0013 13.6074Z" fill="#332C5C"/>
<path d="M5.7513 16.25C5.50894 16.25 5.30422 16.1669 5.13714 16.0008C4.97019 15.8346 4.88672 15.6309 4.88672 15.3898C4.88672 15.1487 4.97019 14.9435 5.13714 14.7744C5.30422 14.6053 5.50894 14.5208 5.7513 14.5208H14.2513C14.4937 14.5208 14.6984 14.6039 14.8655 14.77C15.0324 14.9363 15.1159 15.1399 15.1159 15.381C15.1159 15.6222 15.0324 15.8273 14.8655 15.9965C14.6984 16.1655 14.4937 16.25 14.2513 16.25H5.7513Z" fill="#332C5C"/>
</svg>
