<svg width="20" height="20" viewBox="0 0 20 20" fill="none" xmlns="http://www.w3.org/2000/svg">
<path d="M7.50604 15C7.29368 15 7.11458 14.9285 6.96875 14.7856C6.82292 14.6427 6.75 14.4656 6.75 14.2544C6.75 14.0431 6.82181 13.8646 6.96542 13.7188C7.10903 13.5729 7.28701 13.5 7.49938 13.5H16.244C16.4563 13.5 16.6354 13.5715 16.7813 13.7144C16.9271 13.8573 17 14.0344 17 14.2456C17 14.4569 16.9282 14.6354 16.7846 14.7812C16.641 14.9271 16.463 15 16.2506 15H7.50604ZM8.75604 10.75C8.54368 10.75 8.36458 10.6785 8.21875 10.5356C8.07292 10.3927 8 10.2156 8 10.0044C8 9.79313 8.07181 9.61458 8.21542 9.46875C8.35903 9.32292 8.53701 9.25 8.74938 9.25H16.244C16.4563 9.25 16.6354 9.32146 16.7813 9.46438C16.9271 9.60729 17 9.78438 17 9.99563C17 10.2069 16.9282 10.3854 16.7846 10.5312C16.641 10.6771 16.463 10.75 16.2506 10.75H8.75604ZM3.75 6.5C3.5375 6.5 3.35938 6.42854 3.21563 6.28563C3.07188 6.14271 3 5.96563 3 5.75438C3 5.54313 3.07188 5.36458 3.21563 5.21875C3.35938 5.07292 3.5375 5 3.75 5H16.25C16.4625 5 16.6406 5.07146 16.7844 5.21437C16.9281 5.35729 17 5.53437 17 5.74562C17 5.95687 16.9281 6.13542 16.7844 6.28125C16.6406 6.42708 16.4625 6.5 16.25 6.5H3.75Z" fill="#332C5C"/>
</svg>
