<svg width="20" height="20" viewBox="0 0 20 20" fill="none" xmlns="http://www.w3.org/2000/svg">
<path d="M12.494 15C12.7063 15 12.8854 14.9285 13.0312 14.7856C13.1771 14.6427 13.25 14.4656 13.25 14.2544C13.25 14.0431 13.1782 13.8646 13.0346 13.7188C12.891 13.5729 12.713 13.5 12.5006 13.5H3.75604C3.54368 13.5 3.36458 13.5715 3.21875 13.7144C3.07292 13.8573 3 14.0344 3 14.2456C3 14.4569 3.07181 14.6354 3.21542 14.7812C3.35903 14.9271 3.53701 15 3.74937 15H12.494ZM11.244 10.75C11.4563 10.75 11.6354 10.6785 11.7812 10.5356C11.9271 10.3927 12 10.2156 12 10.0044C12 9.79313 11.9282 9.61458 11.7846 9.46875C11.641 9.32292 11.463 9.25 11.2506 9.25H3.75604C3.54368 9.25 3.36458 9.32146 3.21875 9.46438C3.07292 9.60729 3 9.78438 3 9.99563C3 10.2069 3.07181 10.3854 3.21542 10.5312C3.35903 10.6771 3.53701 10.75 3.74937 10.75H11.244ZM16.25 6.5C16.4625 6.5 16.6406 6.42854 16.7844 6.28563C16.9281 6.14271 17 5.96563 17 5.75438C17 5.54313 16.9281 5.36458 16.7844 5.21875C16.6406 5.07292 16.4625 5 16.25 5H3.75C3.5375 5 3.35937 5.07146 3.21562 5.21437C3.07187 5.35729 3 5.53437 3 5.74562C3 5.95687 3.07187 6.13542 3.21562 6.28125C3.35937 6.42708 3.5375 6.5 3.75 6.5H16.25Z" fill="#332C5C"/>
</svg>
