<svg width="20" height="20" viewBox="0 0 20 20" fill="none" xmlns="http://www.w3.org/2000/svg">
<path d="M10.756 7.75C10.5437 7.75 10.3646 7.67854 10.2188 7.53563C10.0729 7.39271 10 7.21562 10 7.00437C10 6.79312 10.0718 6.61458 10.2154 6.46875C10.359 6.32292 10.537 6.25 10.7494 6.25L16.744 6.25875C16.9563 6.25875 17.1354 6.33021 17.2813 6.47312C17.4271 6.61604 17.5 6.79312 17.5 7.00437C17.5 7.21562 17.4282 7.39417 17.2846 7.54C17.141 7.68583 16.963 7.75875 16.7506 7.75875L10.756 7.75Z" fill="#332C5C"/>
<path d="M10.756 10.8394C10.5437 10.8394 10.3646 10.7679 10.2188 10.625C10.0729 10.4821 10 10.305 10 10.0938C10 9.8825 10.0718 9.70396 10.2154 9.55813C10.359 9.41229 10.537 9.33938 10.7494 9.33938H16.744C16.9563 9.33938 17.1354 9.41083 17.2813 9.55375C17.4271 9.69667 17.5 9.87375 17.5 10.085C17.5 10.2963 17.4282 10.4748 17.2846 10.6206C17.141 10.7665 16.963 10.8394 16.7506 10.8394H10.756Z" fill="#332C5C"/>
<path d="M10.756 13.75C10.5437 13.75 10.3646 13.6785 10.2188 13.5356C10.0729 13.3927 10 13.2156 10 13.0044C10 12.7931 10.0718 12.6146 10.2154 12.4688C10.359 12.3229 10.537 12.25 10.7494 12.25H16.744C16.9563 12.25 17.1354 12.3215 17.2813 12.4644C17.4271 12.6073 17.5 12.7844 17.5 12.9956C17.5 13.2069 17.4282 13.3854 17.2846 13.5313C17.141 13.6771 16.963 13.75 16.7506 13.75H10.756Z" fill="#332C5C"/>
<path d="M2.59375 8.03223V6.3916H3.15039C4.0293 6.3916 4.6543 6.21582 5.02539 5.86426C5.40625 5.5127 5.59668 5.06836 5.59668 4.53125V4.25293H7.50098V16.25H5.25977V8.03223H2.59375Z" fill="#332C5C"/>
</svg>
